<svg id="global" xmlns="http://www.w3.org/2000/svg" width="22.854" height="22.854" viewBox="0 0 22.854 22.854">
  <path id="Path_41" data-name="Path 41" d="M11.427,0A11.427,11.427,0,1,0,22.854,11.427,11.417,11.417,0,0,0,11.427,0ZM7.978,1.556A16.415,16.415,0,0,0,6.431,4.23H3.837A10.362,10.362,0,0,1,7.978,1.556ZM3.019,5.2h3a17.193,17.193,0,0,0-1.15,5.739H.986A10.424,10.424,0,0,1,3.019,5.2Zm0,12.45A10.423,10.423,0,0,1,.986,11.913H4.87a17.1,17.1,0,0,0,1.168,5.739Zm.818.972H6.454A17.569,17.569,0,0,0,8,21.307a10.4,10.4,0,0,1-4.159-2.683Zm7.1,3.248a11.136,11.136,0,0,1-1.435-.164,16.509,16.509,0,0,1-1.977-3.08h3.412Zm0-4.22H7.085a16.263,16.263,0,0,1-1.243-5.739h5.1Zm0-6.711h-5.1A16.379,16.379,0,0,1,7.076,5.2h3.865Zm0-6.711H7.52A15.964,15.964,0,0,1,9.506,1.15,10.353,10.353,0,0,1,10.945.986Zm8.889.972a10.375,10.375,0,0,1,2.033,5.739H17.984A17.1,17.1,0,0,0,16.815,5.2Zm-.818-.972H16.4a17.215,17.215,0,0,0-1.547-2.683A10.383,10.383,0,0,1,19.017,4.23ZM11.913.986a11.136,11.136,0,0,1,1.435.164,16.509,16.509,0,0,1,1.977,3.08H11.913Zm0,4.216h3.856a16.241,16.241,0,0,1,1.243,5.739h-5.1V5.2Zm0,6.711h5.1a16.379,16.379,0,0,1-1.234,5.739H11.913V11.913Zm0,9.955V18.624h3.426a15.964,15.964,0,0,1-1.986,3.08A10.353,10.353,0,0,1,11.908,21.868Zm2.944-.561a17.162,17.162,0,0,0,1.538-2.683h2.631a10.432,10.432,0,0,1-4.169,2.683ZM16.8,17.652a17.948,17.948,0,0,0,1.178-5.739h3.893a10.423,10.423,0,0,1-2.033,5.739H16.8Z" fill="#ff9000"/>
</svg>
