<svg xmlns="http://www.w3.org/2000/svg" width="26.37" height="20.316" viewBox="0 0 26.37 20.316">
  <g id="users-group" transform="translate(-125.5 -182.255)">
    <path id="left" d="M4.749,69.5a3.349,3.349,0,0,0,1.793-.521,4.174,4.174,0,0,1,1.569-2.662c0-.063.009-.126.009-.19A3.372,3.372,0,1,0,4.749,69.5Zm3.09,2.9a3.721,3.721,0,0,1-1.344-2.657c-.1-.008-.209-.016-.317-.016H3.318A4.322,4.322,0,0,0-1,74.047v3.5l.009.054.241.075a20.165,20.165,0,0,0,4.862.914V77.533A5.462,5.462,0,0,1,7.839,72.4Z" transform="translate(127 120)" fill="none" stroke="#ff9000" stroke-width="1"/>
    <path id="middle" d="M11.665,72.948a3.372,3.372,0,1,0-3.373-3.372A3.372,3.372,0,0,0,11.665,72.948Zm1.43.229H10.234a4.351,4.351,0,0,0-4.317,4.351l.009,3.554.241.075a19.5,19.5,0,0,0,5.87.914,12.048,12.048,0,0,0,5.126-.963l.225-.114.024-3.5A4.322,4.322,0,0,0,13.1,73.177Z" transform="translate(127 120)" fill="none" stroke="#ff9000" stroke-width="1"/>
    <path id="right" d="M2.371,69.5a3.349,3.349,0,0,1-1.793-.521A4.174,4.174,0,0,0-.991,66.317c0-.063-.009-.126-.009-.19A3.372,3.372,0,1,1,2.371,69.5Zm-3,2.939A3.712,3.712,0,0,0,.625,69.745c.1-.008.209-.016.317-.016H3.8A4.322,4.322,0,0,1,8.12,74.047v3.5l-.009.054-.241.075a20.165,20.165,0,0,1-4.862.914V77.533A5.339,5.339,0,0,0-.631,72.438Z" transform="translate(143.25 120)" fill="none" stroke="#ff9000" stroke-width="1"/>
  </g>
</svg>
